# xmcd CD database file
#
# Track frame offsets:
#	150
#	28972
#	55145
#	77664
#	97445
#	118258
#	131593
#	140063
#	161658
#	182759
#
# Disc length: 2713 seconds
#
# Revision: 0
# Processed by: cddbd v1.5PL3 Copyright (c) Steve Scherf et al.
# Submitted via: CDex 1.51
#
DISCID=960a970a
DTITLE=Sojiro - Mahoroba
DYEAR=1998
DGENRE=New Age
TTITLE0=(Japanese Title)
TTITLE1=(Japanese Title)
TTITLE2=UMI-YURA
TTITLE3=(Japanese Title)
TTITLE4=HITOMI
TTITLE5=(Japanese Title)
TTITLE6=(Japanese Title)
TTITLE7=MATSU
TTITLE8=(Japanese Title)
TTITLE9=(Japanese Title)
EXTD=YEAR: 1998
EXTT0=
EXTT1=
EXTT2=
EXTT3=
EXTT4=
EXTT5=
EXTT6=
EXTT7=
EXTT8=
EXTT9=
PLAYORDER=
